<svg width="198" height="53" viewBox="0 0 198 53" fill="none" xmlns="http://www.w3.org/2000/svg">
<path d="M0.00580368 7.34577C-0.222351 25.4946 6.27638 39.5993 19.5094 49.6446C8.24881 29.6534 20.2085 3.65332 42.7959 4.24197C28.5325 -2.30965 14.2618 -1.26996 0.00580368 7.34577Z" fill="#005A32"/>
<path d="M48.6396 7.3458C27.0017 0.901206 7.68952 28.0709 24.308 52.9319C17.1322 30.4408 33.3385 17.544 46.9101 21.4199C47.9552 17.0318 48.5292 12.3455 48.6396 7.3458Z" fill="#238B45"/>
<path d="M46.2254 24.019C33.9566 20.7088 21.3786 31.7862 26.663 51.334C36.4442 44.3696 42.965 35.2722 46.2254 24.019Z" fill="#39B54A"/>
<path d="M63.5213 23.4761C63.904 25.2268 65.0889 26.0601 67.0687 26.0601C69.1 26.0601 69.9464 25.158 69.9464 23.8431C69.9464 22.4058 69.181 21.7102 66.3327 21.0145C62.248 20.0054 61.1146 18.4917 61.1146 16.2594C61.1146 13.5531 63.0502 11.6113 66.7007 11.6113C70.7265 11.6113 72.3531 13.9124 72.5739 16.2212H69.5931C69.387 15.0591 68.7394 13.9354 66.6197 13.9354C65.0595 13.9354 64.1395 14.631 64.1395 15.9307C64.1395 17.2073 64.8828 17.7119 67.4956 18.3541C72.0366 19.4779 72.9713 21.2591 72.9713 23.4914C72.9713 26.3582 70.8958 28.407 66.8479 28.407C62.8662 28.407 60.9012 26.2971 60.5405 23.4761H63.5213Z" fill="#005A32"/>
<path d="M85.2551 24.6535C85.2551 25.8308 85.2625 27.2222 85.2772 28.1854H82.5099C82.4657 27.8643 82.4437 27.1839 82.4289 26.6411C81.7739 27.9025 80.7141 28.4683 79.1023 28.4683C76.8576 28.4683 75.2163 27.1304 75.2163 23.9731V16.0454H78.0351V23.3845C78.0351 24.814 78.462 26.0372 80.0444 26.0372C81.7445 26.0372 82.4289 25.0816 82.4289 22.4671V16.0454H85.2551V24.6535Z" fill="#005A32"/>
<path d="M90.0975 24.5925C90.3698 25.678 91.1941 26.3049 92.5262 26.3049C93.8952 26.3049 94.4103 25.7545 94.4103 24.8906C94.4103 23.9885 93.8952 23.6139 92.0331 23.14C88.3826 22.2073 87.735 21.0376 87.735 19.3481C87.735 17.5898 88.9494 15.7627 92.2981 15.7627C95.6615 15.7627 96.8759 17.7045 96.9936 19.3711H94.2926C94.1675 18.813 93.7848 17.8803 92.173 17.8803C90.9144 17.8803 90.517 18.4843 90.517 19.1111C90.517 19.8145 90.9218 20.1585 92.9016 20.6477C96.6845 21.5651 97.288 22.903 97.288 24.6919C97.288 26.7407 95.7646 28.4761 92.4232 28.4761C89.0524 28.4761 87.5804 26.7636 87.3081 24.6001H90.0975V24.5925Z" fill="#005A32"/>
<path d="M98.208 16.0454H100.085V12.6587H102.911V16.0454H105.296V18.3006H102.911V24.6687C102.911 25.6778 103.183 26.1212 104.177 26.1212C104.39 26.1212 104.744 26.1136 105.008 26.0601V28.1242C104.412 28.3382 103.595 28.3535 102.977 28.3535C100.85 28.3535 100.085 27.1839 100.085 25.0968V18.3006H98.208V16.0454Z" fill="#005A32"/>
<path d="M116.63 25.2119C116.63 26.351 116.718 27.8723 116.792 28.1858H114.091C114.002 27.9335 113.929 27.3143 113.914 26.8632C113.495 27.5895 112.656 28.4686 110.521 28.4686C107.724 28.4686 106.54 26.5651 106.54 24.6921C106.54 21.9476 108.652 20.6785 112.089 20.6785C112.744 20.6785 113.458 20.6785 113.87 20.6785V19.8376C113.87 18.9049 113.561 17.9035 111.831 17.9035C110.271 17.9035 109.962 18.645 109.785 19.5471H107.084C107.253 17.5518 108.438 15.74 111.927 15.7629C114.967 15.7782 116.63 17.032 116.63 19.8758V25.2119ZM113.87 22.5286C113.568 22.5286 112.854 22.5286 112.361 22.5286C110.286 22.5286 109.388 23.1631 109.388 24.5162C109.388 25.5254 110.013 26.3281 111.272 26.3281C113.583 26.3281 113.877 24.6768 113.877 22.8726V22.5286H113.87Z" fill="#005A32"/>
<path d="M119.75 10.9082H122.577V13.7827H119.75V10.9082ZM119.75 16.0455H122.577V28.1855H119.75V16.0455Z" fill="#005A32"/>
<path d="M125.682 19.1035C125.682 18.0638 125.682 16.9553 125.66 16.0456H128.398C128.457 16.3743 128.501 17.3605 128.508 17.7427C128.928 16.8865 129.877 15.7627 131.997 15.7627C134.293 15.7627 135.883 17.3222 135.883 20.4337V28.1855H133.057V20.7701C133.057 19.2487 132.534 18.1785 130.989 18.1785C129.333 18.1785 128.516 19.2946 128.516 21.5345V28.1855H125.69V19.1035H125.682Z" fill="#005A32"/>
<path d="M148.174 25.2119C148.174 26.351 148.262 27.8723 148.336 28.1858H145.635C145.546 27.9335 145.473 27.3143 145.465 26.8632C145.046 27.5895 144.207 28.4686 142.072 28.4686C139.276 28.4686 138.091 26.5651 138.091 24.6921C138.091 21.9476 140.196 20.6785 143.64 20.6785C144.295 20.6785 145.009 20.6785 145.421 20.6785V19.8376C145.421 18.9049 145.112 17.9035 143.383 17.9035C141.822 17.9035 141.513 18.645 141.336 19.5471H138.635C138.805 17.5518 139.99 15.74 143.478 15.7629C146.518 15.7782 148.181 17.032 148.181 19.8758V25.2119H148.174ZM145.421 22.5286C145.119 22.5286 144.406 22.5286 143.912 22.5286C141.837 22.5286 140.932 23.1631 140.932 24.5162C140.932 25.5254 141.557 26.3281 142.816 26.3281C145.127 26.3281 145.421 24.6768 145.421 22.8726V22.5286Z" fill="#005A32"/>
<path d="M151.538 11.8486H157.86C161.105 11.8486 163.313 13.7446 163.313 16.8025C163.313 20.2274 160.855 21.871 157.764 21.871H154.496V28.178H151.538V11.8486ZM154.489 19.4017H157.44C159.214 19.4017 160.311 18.6143 160.311 16.8636C160.311 15.0748 159.089 14.3179 157.514 14.3179H154.482V19.4017H154.489Z" fill="#39B54A"/>
<path d="M174.485 25.2119C174.485 26.351 174.574 27.8723 174.647 28.1858H171.946C171.858 27.9335 171.784 27.3143 171.77 26.8632C171.35 27.5895 170.511 28.4686 168.377 28.4686C165.58 28.4686 164.395 26.5651 164.395 24.6921C164.395 21.9476 166.507 20.6785 169.944 20.6785C170.599 20.6785 171.313 20.6785 171.725 20.6785V19.8376C171.725 18.9049 171.416 17.9035 169.687 17.9035C168.126 17.9035 167.817 18.645 167.641 19.5471H164.94C165.109 17.5518 166.294 15.74 169.782 15.7629C172.822 15.7782 174.485 17.032 174.485 19.8758V25.2119ZM171.733 22.5286C171.431 22.5286 170.717 22.5286 170.224 22.5286C168.149 22.5286 167.251 23.1631 167.251 24.5162C167.251 25.5254 167.876 26.3281 169.135 26.3281C171.446 26.3281 171.74 24.6768 171.74 22.8726V22.5286H171.733Z" fill="#39B54A"/>
<path d="M179.321 24.5925C179.593 25.678 180.417 26.3049 181.749 26.3049C183.118 26.3049 183.633 25.7545 183.633 24.8906C183.633 23.9885 183.118 23.6139 181.256 23.14C177.606 22.2073 176.958 21.0376 176.958 19.3481C176.958 17.5898 178.172 15.7627 181.521 15.7627C184.892 15.7627 186.099 17.7045 186.217 19.3711H183.516C183.391 18.813 183.008 17.8803 181.396 17.8803C180.138 17.8803 179.74 18.4843 179.74 19.1111C179.74 19.8145 180.145 20.1585 182.125 20.6477C185.908 21.5651 186.511 22.903 186.511 24.6919C186.511 26.7407 184.988 28.4761 181.646 28.4761C178.276 28.4761 176.804 26.7636 176.531 24.6001H179.321V24.5925Z" fill="#39B54A"/>
<path d="M190.809 24.5925C191.082 25.678 191.906 26.3049 193.238 26.3049C194.607 26.3049 195.122 25.7545 195.122 24.8906C195.122 23.9885 194.607 23.6139 192.745 23.14C189.095 22.2073 188.447 21.0376 188.447 19.3481C188.447 17.5898 189.661 15.7627 193.01 15.7627C196.381 15.7627 197.588 17.7045 197.706 19.3711H195.004C194.879 18.813 194.497 17.8803 192.885 17.8803C191.626 17.8803 191.229 18.4843 191.229 19.1111C191.229 19.8145 191.634 20.1585 193.613 20.6477C197.396 21.5651 198 22.903 198 24.6919C198 26.7407 196.476 28.4761 193.135 28.4761C189.764 28.4761 188.292 26.7636 188.02 24.6001H190.809V24.5925Z" fill="#39B54A"/>
<path d="M64.1614 38.3074H61.8725L61.4971 40.188H64.1172L63.9259 40.7308H60.7759L61.8136 35.624H64.8385L64.7281 36.1668H62.3141L61.9829 37.7646H64.2718L64.1614 38.3074Z" fill="#003200"/>
<path d="M65.4347 39.2398C65.4936 39.9279 65.8983 40.2795 66.5975 40.2795C67.2452 40.2795 67.6794 39.9737 67.6794 39.3545C67.6794 38.8882 67.4586 38.6053 66.6638 38.2842C65.7511 37.9249 65.4273 37.5656 65.4273 36.9693C65.4273 36.2278 65.9351 35.5474 67.0391 35.5474C68.1284 35.5474 68.5994 36.1972 68.6068 36.9617H67.9959C67.937 36.4418 67.6941 36.0749 66.995 36.0749C66.3767 36.0749 66.0603 36.4495 66.0603 36.8929C66.0603 37.2445 66.2148 37.4662 66.9508 37.7567C67.9665 38.1543 68.3197 38.59 68.3197 39.2628C68.3197 40.0578 67.8266 40.7994 66.5239 40.7994C65.3905 40.7994 64.8312 40.1496 64.8091 39.2398H65.4347Z" fill="#003200"/>
<path d="M72.7574 40.7227H72.2643C72.2717 40.5546 72.3305 40.18 72.3821 39.943C72.0656 40.4552 71.6387 40.7839 70.8144 40.7839C69.681 40.7839 69.1069 39.92 69.1069 38.7504C69.1069 37.1908 69.968 35.5396 71.727 35.5396C72.8016 35.5396 73.464 36.1817 73.486 37.0991H72.8825C72.8236 36.5563 72.4704 36.0747 71.6387 36.0747C70.4023 36.0747 69.7472 37.3972 69.7472 38.6892C69.7472 39.576 70.1152 40.2488 70.969 40.2488C72.0288 40.2488 72.4189 39.4461 72.5955 38.5516L72.6029 38.521H71.1603L71.2707 37.9553H73.2947L72.7574 40.7227Z" fill="#003200"/>
<path d="M79.8159 39.2169C79.47 40.1801 78.837 40.7917 77.6742 40.7917C76.4304 40.7917 75.8857 39.8973 75.8857 38.7429C75.8857 37.2369 76.688 35.5474 78.3954 35.5474C79.4479 35.5474 80.0808 36.1589 80.125 37.1681H79.4847C79.4332 36.5335 79.0873 36.0825 78.3292 36.0825C77.1516 36.0825 76.5408 37.4356 76.5408 38.7276C76.5408 39.5609 76.8793 40.2566 77.7551 40.2566C78.4028 40.2566 78.8665 39.9202 79.1682 39.2169H79.8159Z" fill="#003200"/>
<path d="M83.7165 38.4678C83.7165 39.4539 83.1792 40.7994 81.8029 40.7994C80.9344 40.7994 80.4561 40.2261 80.4561 39.301C80.4561 38.269 81.0596 36.9312 82.3549 36.9312C83.1792 36.9312 83.7165 37.4816 83.7165 38.4678ZM81.0669 39.301C81.0669 39.9203 81.354 40.2949 81.8765 40.2949C82.7376 40.2949 83.113 39.2322 83.113 38.4525C83.113 37.8256 82.8554 37.4434 82.3034 37.4434C81.4791 37.4434 81.0669 38.4983 81.0669 39.301Z" fill="#003200"/>
<path d="M84.6803 38.0473C84.7539 37.6956 84.8202 37.3593 84.879 37.0076H85.4531C85.4458 37.107 85.4016 37.3975 85.3574 37.581C85.5856 37.2293 85.8873 36.9312 86.432 36.9312C86.9251 36.9312 87.1974 37.1605 87.2636 37.6115C87.5139 37.2446 87.8671 36.9312 88.4559 36.9312C89.0447 36.9312 89.5157 37.2905 89.3097 38.3149L88.8166 40.723H88.2425L88.7209 38.376C88.8092 37.9479 88.7945 37.4586 88.2204 37.4586C87.6611 37.4586 87.3299 37.9708 87.2048 38.5977L86.7705 40.7153H86.1965L86.6601 38.4372C86.7779 37.8638 86.719 37.4586 86.1965 37.4586C85.6224 37.4586 85.2691 38.0014 85.1366 38.6665L84.7245 40.7153H84.1431L84.6803 38.0473Z" fill="#003200"/>
<path d="M90.5683 40.2337L90.1635 42.1908H89.5747L90.4064 38.1008C90.5094 37.5886 90.583 37.2369 90.6198 37.0076H91.1939C91.1865 37.0917 91.1276 37.4281 91.0835 37.6498C91.3337 37.2446 91.7164 36.9312 92.3052 36.9312C93.0265 36.9312 93.446 37.4892 93.446 38.3378C93.446 39.5533 92.7762 40.7918 91.5619 40.7918C90.9804 40.7994 90.686 40.5089 90.5683 40.2337ZM92.8351 38.399C92.8351 37.7797 92.5554 37.4586 92.0918 37.4586C91.422 37.4586 90.9657 38.1543 90.8112 38.8806C90.6419 39.6986 90.8406 40.2719 91.5692 40.2719C92.4377 40.2719 92.8351 39.2246 92.8351 38.399Z" fill="#003200"/>
<path d="M93.8657 40.7231L94.9623 35.3335H95.5438L94.4472 40.7231H93.8657Z" fill="#003200"/>
<path d="M96.28 37.0074H96.8615L96.1034 40.7304H95.522L96.28 37.0074ZM96.6186 35.3408H97.2L97.0381 36.1435H96.4567L96.6186 35.3408Z" fill="#003200"/>
<path d="M99.9894 39.8056C99.9305 40.119 99.8422 40.5777 99.8201 40.7306H99.246C99.2607 40.593 99.2975 40.3637 99.3417 40.1573C99.1651 40.4554 98.856 40.7994 98.1273 40.7994C97.4061 40.7994 97.1411 40.3102 97.1411 39.8668C97.1411 38.8041 98.0979 38.5748 98.8192 38.4983C99.1871 38.4678 99.511 38.4678 99.6876 38.4601L99.7318 38.2078C99.798 37.8562 99.7759 37.4051 99.0915 37.4051C98.488 37.4051 98.3187 37.7339 98.2156 38.0167H97.6195C97.7446 37.4663 98.1421 36.9312 99.143 36.9312C99.9673 36.9312 100.497 37.3134 100.313 38.2078L99.9894 39.8056ZM99.5919 38.9112C99.4006 38.9188 99.1577 38.9188 98.856 38.9494C98.2745 39.0105 97.7593 39.1787 97.7593 39.775C97.7593 40.0579 97.9433 40.2949 98.3334 40.2949C99.1135 40.2949 99.4227 39.6604 99.5772 38.9723L99.5919 38.9112Z" fill="#003200"/>
<path d="M101.431 37.9477C101.498 37.6267 101.557 37.3132 101.608 36.9998H102.182C102.167 37.1145 102.101 37.5349 102.072 37.6343C102.278 37.2979 102.624 36.9233 103.279 36.9233C103.963 36.9233 104.39 37.3362 104.169 38.3911L103.698 40.7152H103.117L103.581 38.4064C103.698 37.8407 103.573 37.4585 103.029 37.4585C102.366 37.4585 101.983 38.093 101.829 38.8575L101.446 40.7152H100.865L101.431 37.9477Z" fill="#003200"/>
<path d="M107.754 39.6142C107.511 40.3251 107.01 40.7991 106.164 40.7991C105.288 40.7991 104.861 40.2028 104.861 39.3466C104.861 38.2305 105.465 36.9385 106.709 36.9385C107.717 36.9385 108.004 37.6953 107.96 38.1999H107.386C107.371 37.7794 107.194 37.4354 106.672 37.4354C105.84 37.4354 105.465 38.498 105.465 39.3084C105.465 40.0117 105.774 40.3098 106.245 40.3098C106.657 40.3098 106.966 40.0499 107.165 39.6218H107.754V39.6142Z" fill="#003200"/>
<path d="M109.02 38.957C108.998 39.1023 108.99 39.1864 108.99 39.3087C108.99 39.9356 109.277 40.2872 109.778 40.2872C110.3 40.2872 110.543 39.9814 110.705 39.6756H111.316C111.08 40.249 110.646 40.7994 109.719 40.7994C108.821 40.7994 108.401 40.1802 108.401 39.324C108.401 38.2766 108.953 36.9312 110.278 36.9312C111.235 36.9312 111.559 37.581 111.559 38.2614C111.559 38.4907 111.537 38.7124 111.47 38.957H109.02ZM110.955 38.4983C110.977 38.4066 110.977 38.3149 110.977 38.2308C110.977 37.7262 110.749 37.4281 110.234 37.4281C109.689 37.4281 109.292 37.818 109.115 38.4983H110.955Z" fill="#003200"/>
<path d="M115.79 38.5747L115.68 39.1328H113.899L114.009 38.5747H115.79Z" fill="#003200"/>
<path d="M118.698 39.2398C118.757 39.9279 119.161 40.2795 119.861 40.2795C120.508 40.2795 120.943 39.9737 120.943 39.3545C120.943 38.8882 120.722 38.6053 119.927 38.2842C119.014 37.9249 118.69 37.5656 118.69 36.9693C118.69 36.2278 119.198 35.5474 120.302 35.5474C121.392 35.5474 121.863 36.1972 121.87 36.9617H121.259C121.2 36.4418 120.957 36.0749 120.258 36.0749C119.64 36.0749 119.331 36.4495 119.331 36.8929C119.331 37.2445 119.485 37.4662 120.221 37.7567C121.237 38.1543 121.59 38.59 121.59 39.2628C121.59 40.0578 121.097 40.7994 119.794 40.7994C118.661 40.7994 118.102 40.1496 118.08 39.2398H118.698Z" fill="#003200"/>
<path d="M122.915 37.0074H123.497L122.739 40.7304H122.157L122.915 37.0074ZM123.254 35.3408H123.835L123.673 36.1435H123.092L123.254 35.3408Z" fill="#003200"/>
<path d="M124.336 38.0473C124.409 37.6956 124.475 37.3593 124.534 37.0076H125.108C125.101 37.107 125.057 37.3975 125.013 37.581C125.241 37.2293 125.543 36.9312 126.087 36.9312C126.58 36.9312 126.853 37.1605 126.919 37.6115C127.169 37.2446 127.522 36.9312 128.111 36.9312C128.7 36.9312 129.171 37.2905 128.965 38.3149L128.472 40.723H127.898L128.376 38.376C128.464 37.9479 128.45 37.4586 127.876 37.4586C127.316 37.4586 126.985 37.9708 126.86 38.5977L126.426 40.7153H125.852L126.315 38.4372C126.433 37.8638 126.374 37.4586 125.852 37.4586C125.278 37.4586 124.924 38.0014 124.792 38.6665L124.38 40.7153H123.798L124.336 38.0473Z" fill="#003200"/>
<path d="M130.23 40.2337L129.826 42.1908H129.237L130.068 38.1008C130.172 37.5886 130.245 37.2369 130.282 37.0076H130.856C130.849 37.0917 130.79 37.4281 130.746 37.6498C130.996 37.2446 131.379 36.9312 131.967 36.9312C132.689 36.9312 133.108 37.4892 133.108 38.3378C133.108 39.5533 132.438 40.7918 131.224 40.7918C130.643 40.7994 130.348 40.5089 130.23 40.2337ZM132.497 38.399C132.497 37.7797 132.218 37.4586 131.754 37.4586C131.084 37.4586 130.628 38.1543 130.473 38.8806C130.304 39.6986 130.503 40.2719 131.231 40.2719C132.1 40.2719 132.497 39.2246 132.497 38.399Z" fill="#003200"/>
<path d="M133.521 40.7231L134.617 35.3335H135.199L134.102 40.7231H133.521Z" fill="#003200"/>
<path d="M135.942 37.0074H136.523L135.765 40.7304H135.184L135.942 37.0074ZM136.28 35.3408H136.862L136.7 36.1435H136.118L136.28 35.3408Z" fill="#003200"/>
<path d="M136.994 40.7305L137.642 37.5121H137.075L137.185 37.0152H137.752L137.863 36.4877C138.002 35.8073 138.348 35.2798 139.055 35.2798C139.224 35.2798 139.393 35.3027 139.467 35.3333L139.357 35.8531C139.283 35.8302 139.151 35.8226 139.062 35.8226C138.724 35.8226 138.532 36.0519 138.437 36.4953L138.326 37.0228H139.033L138.922 37.5197H138.216L137.568 40.7382H136.994V40.7305Z" fill="#003200"/>
<path d="M139.688 37.0074H140.27L139.512 40.7304H138.93L139.688 37.0074ZM140.027 35.3408H140.608L140.446 36.1435H139.865L140.027 35.3408Z" fill="#003200"/>
<path d="M141.293 38.957C141.27 39.1023 141.263 39.1864 141.263 39.3087C141.263 39.9356 141.55 40.2872 142.051 40.2872C142.573 40.2872 142.816 39.9814 142.978 39.6756H143.589C143.353 40.249 142.919 40.7994 141.992 40.7994C141.094 40.7994 140.674 40.1802 140.674 39.324C140.674 38.2766 141.226 36.9312 142.551 36.9312C143.515 36.9312 143.832 37.581 143.832 38.2614C143.832 38.4907 143.81 38.7124 143.743 38.957H141.293ZM143.236 38.4983C143.258 38.4066 143.258 38.3149 143.258 38.2308C143.258 37.7262 143.029 37.4281 142.514 37.4281C141.97 37.4281 141.572 37.818 141.396 38.4983H143.236Z" fill="#003200"/>
<path d="M148.247 35.3408L147.364 39.6907C147.291 40.0424 147.217 40.3941 147.165 40.7304H146.599C146.606 40.6234 146.65 40.3788 146.694 40.1418C146.459 40.5317 146.106 40.8069 145.51 40.8069C144.737 40.8069 144.354 40.2029 144.354 39.362C144.354 38.2688 144.98 36.9386 146.231 36.9386C146.834 36.9386 147.151 37.275 147.232 37.5196L147.673 35.3485H148.247V35.3408ZM144.958 39.2932C144.958 39.9507 145.237 40.2641 145.708 40.2641C146.452 40.2641 146.834 39.5684 146.996 38.7428C147.151 37.963 146.923 37.4661 146.238 37.4661C145.399 37.4661 144.958 38.4752 144.958 39.2932Z" fill="#003200"/>
</svg>
